<svg id="visual" viewBox="0 0 300 400" width="300" height="400" xmlns="http://www.w3.org/2000/svg" xmlns:xlink="http://www.w3.org/1999/xlink" version="1.1"><path d="M0 310L7.2 318.3C14.3 326.7 28.7 343.3 43 346.3C57.3 349.3 71.7 338.7 86 335.3C100.3 332 114.7 336 128.8 341.2C143 346.3 157 352.7 171.2 356.5C185.3 360.3 199.7 361.7 214 360.7C228.3 359.7 242.7 356.3 257 349.2C271.3 342 285.7 331 292.8 325.5L300 320L300 401L292.8 401C285.7 401 271.3 401 257 401C242.7 401 228.3 401 214 401C199.7 401 185.3 401 171.2 401C157 401 143 401 128.8 401C114.7 401 100.3 401 86 401C71.7 401 57.3 401 43 401C28.7 401 14.3 401 7.2 401L0 401Z" fill="#0066FF" stroke-linecap="round" stroke-linejoin="miter"></path></svg>